<svg width="35" height="40" fill="none" xmlns="http://www.w3.org/2000/svg" viewBox="0 0 35 40"><path d="m32.833 9.573.939-2.303s-1.181-1.272-2.635-2.726c-1.454-1.454-4.513-.606-4.513-.606L23.14 0H10.874L7.39 3.968s-3.059-.848-4.513.606C1.424 6.028.242 7.301.242 7.301l.94 2.302L0 12.996S3.514 26.264 3.907 27.9c.818 3.18 1.363 4.423 3.665 6.059 2.302 1.635 6.452 4.422 7.148 4.846.667.425 1.545 1.151 2.302 1.151.758 0 1.606-.727 2.302-1.15.667-.425 4.846-3.242 7.148-4.847 2.302-1.606 2.848-2.848 3.665-6.06.424-1.635 3.908-14.903 3.908-14.903l-1.212-3.423Z" fill="url(#a)"/><path d="M25.655 6.483s4.482 5.422 4.482 6.603c0 1.182-.575 1.455-1.15 2.06a677.6 677.6 0 0 0-3.363 3.575c-.333.333-.969.848-.605 1.787.393.91.969 2.09.333 3.302-.636 1.182-1.727 2-2.423 1.848-.697-.121-2.363-1-2.969-1.393-.605-.394-2.514-1.97-2.514-2.575 0-.606 2-1.697 2.363-1.939s2.03-1.212 2.06-1.575c.03-.364.03-.485-.485-1.424-.485-.94-1.393-2.181-1.242-2.999.152-.818 1.575-1.242 2.605-1.636 1.03-.394 2.998-1.12 3.24-1.242.243-.121.183-.212-.575-.303-.757-.06-2.847-.363-3.816-.09-.97.272-2.575.666-2.726.878-.121.212-.242.212-.121.97.12.726.848 4.3.908 4.937.061.636.212 1.06-.484 1.212-.667.151-1.818.424-2.211.424-.394 0-1.545-.273-2.211-.424-.667-.152-.546-.576-.485-1.212.06-.636.757-4.18.909-4.938.12-.727.03-.757-.122-.97-.12-.211-1.756-.605-2.726-.878-.969-.272-3.059 0-3.816.091-.757.06-.818.182-.575.303.242.121 2.21.848 3.24 1.242 1.03.394 2.454.818 2.605 1.636.152.818-.727 2.06-1.242 2.999-.484.94-.514 1.03-.484 1.424.03.363 1.696 1.333 2.06 1.575.363.242 2.362 1.333 2.362 1.939 0 .606-1.908 2.18-2.514 2.575-.606.393-2.241 1.242-2.968 1.393-.697.121-1.787-.666-2.423-1.848-.636-1.181-.06-2.363.333-3.302.394-.909-.273-1.423-.606-1.787-.242-.363-2.696-2.999-3.271-3.575-.576-.605-1.12-.908-1.12-2.06 0-1.15 4.482-6.603 4.482-6.603s3.786.727 4.301.727c.515 0 1.605-.424 2.635-.758 1.03-.333 1.696-.333 1.696-.333s.667 0 1.696.333c1.03.334 2.12.758 2.636.758.515 0 4.3-.727 4.3-.727Zm-3.363 20.75c.273.182.122.515-.15.667-.243.182-3.666 2.817-3.969 3.12-.333.303-.818.757-1.15.757-.334 0-.819-.484-1.152-.757-.333-.303-3.725-2.938-3.968-3.12-.242-.182-.424-.515-.151-.667.273-.181 1.151-.605 2.332-1.242 1.212-.636 2.696-1.15 2.938-1.15.243 0 1.727.514 2.938 1.15 1.181.637 2.03 1.09 2.332 1.242Z" fill="#fff"/><path d="M26.624 3.968 23.14 0H10.874L7.39 3.968s-3.059-.848-4.513.606c0 0 4.09-.363 5.483 1.909 0 0 3.786.727 4.3.727.516 0 1.606-.424 2.636-.758 1.03-.333 1.696-.333 1.696-.333s.666 0 1.696.333c1.03.334 2.12.758 2.635.758.515 0 4.301-.727 4.301-.727 1.394-2.272 5.483-1.909 5.483-1.909-1.424-1.454-4.483-.606-4.483-.606Z" fill="url(#b)"/><defs><linearGradient id="a" x1="-.001" y1="19.977" x2="34.045" y2="19.977" gradientUnits="userSpaceOnUse"><stop stop-color="#F50"/><stop offset=".41" stop-color="#F50"/><stop offset=".582" stop-color="#FF2000"/><stop offset="1" stop-color="#FF2000"/></linearGradient><linearGradient id="b" x1="3.497" y1="3.605" x2="31.127" y2="3.605" gradientUnits="userSpaceOnUse"><stop stop-color="#FF452A"/><stop offset="1" stop-color="#FF2000"/></linearGradient></defs></svg>