<svg width="40" height="40" fill="none" xmlns="http://www.w3.org/2000/svg" viewBox="0 0 40 40"><g clip-path="url(#a)"><path d="M20 20c0-1.768.713-3.464 1.981-4.714a6.815 6.815 0 0 1 4.784-1.953c1.794 0 3.514.703 4.783 1.953A6.618 6.618 0 0 1 33.53 20a6.618 6.618 0 0 1-1.98 4.714 6.816 6.816 0 0 1-4.784 1.953 6.816 6.816 0 0 1-4.784-1.953A6.618 6.618 0 0 1 20 20Z" fill="#1ABCFE"/><path d="M6.47 33.333c0-1.768.713-3.463 1.982-4.714a6.815 6.815 0 0 1 4.783-1.952H20v6.666a6.618 6.618 0 0 1-1.981 4.715A6.816 6.816 0 0 1 13.235 40a6.816 6.816 0 0 1-4.783-1.953 6.618 6.618 0 0 1-1.981-4.714Z" fill="#0ACF83"/><path d="M20 0v13.333h6.765a6.815 6.815 0 0 0 4.783-1.952 6.618 6.618 0 0 0 1.981-4.714 6.618 6.618 0 0 0-1.98-4.714A6.816 6.816 0 0 0 26.764 0H20Z" fill="#FF7262"/><path d="M6.47 6.667c0 1.768.713 3.463 1.982 4.714a6.815 6.815 0 0 0 4.783 1.952H20V0h-6.765a6.815 6.815 0 0 0-4.783 1.953A6.618 6.618 0 0 0 6.47 6.667Z" fill="#F24E1E"/><path d="M6.47 20c0 1.768.713 3.464 1.982 4.714a6.816 6.816 0 0 0 4.783 1.953H20V13.333h-6.765a6.815 6.815 0 0 0-4.783 1.953A6.618 6.618 0 0 0 6.47 20Z" fill="#A259FF"/></g><defs><clipPath id="a"><path fill="#fff" transform="translate(6.47)" d="M0 0h27.059v40H0z"/></clipPath></defs></svg>