<svg width="40" height="40" fill="none" xmlns="http://www.w3.org/2000/svg" viewBox="0 0 40 40"><g filter="url(#a)"><g clip-path="url(#b)"><path d="M20 40c8.764 0 13.636 0 16.818-3.182C40 33.636 40 28.764 40 20c0-8.764 0-13.636-3.182-16.818C33.636 0 28.764 0 20 0 11.236 0 6.364 0 3.182 3.182 0 6.364 0 11.236 0 20c0 8.764 0 13.636 3.182 16.818C6.364 40 11.236 40 20 40Z" fill="url(#c)"/><g clip-path="url(#d)"><g clip-path="url(#e)" filter="url(#f)"><path d="M20 5.484c-8.015 0-14.516 6.5-14.516 14.516 0 6.414 4.159 11.855 9.928 13.775.724.134.959-.316.959-.698v-2.703c-4.038.878-4.879-1.713-4.879-1.713-.66-1.678-1.612-2.124-1.612-2.124-1.317-.901.1-.882.1-.882 1.458.102 2.225 1.497 2.225 1.497 1.294 2.218 3.395 1.577 4.224 1.206.13-.938.506-1.579.922-1.94-3.224-.37-6.613-1.614-6.613-7.175 0-1.586.567-2.88 1.495-3.897-.15-.366-.648-1.843.141-3.841 0 0 1.22-.39 3.993 1.487A13.922 13.922 0 0 1 20 12.504c1.234.006 2.476.167 3.636.488 2.772-1.877 3.989-1.488 3.989-1.488.79 2 .292 3.477.142 3.842.932 1.017 1.494 2.312 1.494 3.897 0 5.575-3.395 6.803-6.627 7.162.52.45.995 1.333.995 2.688v3.984c0 .386.232.84.969.696 5.764-1.922 9.918-7.362 9.918-13.773 0-8.017-6.5-14.516-14.516-14.516Z" fill="#FAFBFC"/></g></g><path d="M20 40c8.764 0 13.636 0 16.818-3.182C40 33.636 40 28.764 40 20c0-8.764 0-13.636-3.182-16.818C33.636 0 28.764 0 20 0 11.236 0 6.364 0 3.182 3.182 0 6.364 0 11.236 0 20c0 8.764 0 13.636 3.182 16.818C6.364 40 11.236 40 20 40Z" fill="url(#g)" style="mix-blend-mode:overlay"/><path d="M20 40c8.764 0 13.636 0 16.818-3.182C40 33.636 40 28.764 40 20c0-8.764 0-13.636-3.182-16.818C33.636 0 28.764 0 20 0 11.236 0 6.364 0 3.182 3.182 0 6.364 0 11.236 0 20c0 8.764 0 13.636 3.182 16.818C6.364 40 11.236 40 20 40Z" fill="url(#h)"/><g style="mix-blend-mode:soft-light" filter="url(#i)"><path d="M35.757 35.757c-1.282 1.282-2.945 1.99-5.473 2.361-2.578.378-5.86.382-10.284.382-4.425 0-7.706-.004-10.284-.382-2.528-.37-4.191-1.079-5.473-2.36-1.282-1.283-1.99-2.946-2.361-5.474C1.504 27.706 1.5 24.424 1.5 20c0-4.425.004-7.706.382-10.284.37-2.528 1.079-4.191 2.36-5.473 1.283-1.282 2.946-1.99 5.474-2.361C12.294 1.504 15.576 1.5 20 1.5c4.425 0 7.706.004 10.284.382 2.528.37 4.191 1.079 5.473 2.36 1.282 1.283 1.99 2.946 2.361 5.474.378 2.578.382 5.86.382 10.284 0 4.425-.004 7.706-.382 10.284-.37 2.528-1.079 4.191-2.36 5.473Z" stroke="url(#j)" stroke-width="3"/></g><g style="mix-blend-mode:soft-light" filter="url(#k)"><path d="M30.212 37.623c2.466-.361 4.012-1.04 5.192-2.22 1.179-1.178 1.858-2.725 2.22-5.191C37.994 27.678 38 24.439 38 20s-.005-7.678-.377-10.212c-.361-2.466-1.04-4.013-2.22-5.192-1.178-1.179-2.725-1.858-5.191-2.22C27.678 2.006 24.439 2 20 2s-7.678.005-10.212.377c-2.466.361-4.013 1.04-5.192 2.22m25.616 33.026L4.596 4.596m25.616 33.027C27.678 37.995 24.439 38 20 38s-7.678-.005-10.212-.377c-2.466-.361-4.013-1.04-5.192-2.22-1.179-1.178-1.858-2.725-2.22-5.191C2.006 27.678 2 24.439 2 20s.005-7.678.377-10.212c.361-2.466 1.04-4.013 2.22-5.192m25.615 33.027L4.596 4.596" stroke="url(#l)" stroke-width="4"/></g></g></g><defs><linearGradient id="g" x1="-.469" y1="0" x2="10.481" y2="46.893" gradientUnits="userSpaceOnUse"><stop stop-opacity="0"/><stop offset=".606" stop-opacity=".078"/><stop offset="1" stop-opacity=".26"/></linearGradient><linearGradient id="h" x1="-.469" y1="0" x2="10.481" y2="46.893" gradientUnits="userSpaceOnUse"><stop offset=".141" stop-color="#fff" stop-opacity=".26"/><stop offset=".641" stop-color="#fff" stop-opacity=".078"/><stop offset="1" stop-color="#fff" stop-opacity="0"/></linearGradient><linearGradient id="j" x1="20" y1="40" x2="20" y2="33.75" gradientUnits="userSpaceOnUse"><stop/><stop offset="1" stop-opacity="0"/></linearGradient><linearGradient id="l" x1="20" y1="0" x2="20" y2="20" gradientUnits="userSpaceOnUse"><stop stop-color="#fff"/><stop offset="1" stop-color="#fff" stop-opacity="0"/></linearGradient><filter id="a" x="0" y="-2" width="40" height="44" filterUnits="userSpaceOnUse" color-interpolation-filters="sRGB"><feFlood flood-opacity="0" result="BackgroundImageFix"/><feBlend in="SourceGraphic" in2="BackgroundImageFix" result="shape"/><feColorMatrix in="SourceAlpha" values="0 0 0 0 0 0 0 0 0 0 0 0 0 0 0 0 0 0 127 0" result="hardAlpha"/><feOffset dy="2"/><feGaussianBlur stdDeviation="2"/><feComposite in2="hardAlpha" operator="arithmetic" k2="-1" k3="1"/><feColorMatrix values="0 0 0 0 1 0 0 0 0 1 0 0 0 0 1 0 0 0 0.25 0"/><feBlend in2="shape" result="effect1_innerShadow_219_3645"/><feColorMatrix in="SourceAlpha" values="0 0 0 0 0 0 0 0 0 0 0 0 0 0 0 0 0 0 127 0" result="hardAlpha"/><feOffset dy="-2"/><feGaussianBlur stdDeviation="2"/><feComposite in2="hardAlpha" operator="arithmetic" k2="-1" k3="1"/><feColorMatrix values="0 0 0 0 0 0 0 0 0 0 0 0 0 0 0 0 0 0 0.12 0"/><feBlend in2="effect1_innerShadow_219_3645" result="effect2_innerShadow_219_3645"/></filter><filter id="f" x="5.484" y="3.484" width="29.032" height="33.032" filterUnits="userSpaceOnUse" color-interpolation-filters="sRGB"><feFlood flood-opacity="0" result="BackgroundImageFix"/><feBlend in="SourceGraphic" in2="BackgroundImageFix" result="shape"/><feColorMatrix in="SourceAlpha" values="0 0 0 0 0 0 0 0 0 0 0 0 0 0 0 0 0 0 127 0" result="hardAlpha"/><feOffset dy="2"/><feGaussianBlur stdDeviation="2"/><feComposite in2="hardAlpha" operator="arithmetic" k2="-1" k3="1"/><feColorMatrix values="0 0 0 0 1 0 0 0 0 1 0 0 0 0 1 0 0 0 0.25 0"/><feBlend in2="shape" result="effect1_innerShadow_219_3645"/><feColorMatrix in="SourceAlpha" values="0 0 0 0 0 0 0 0 0 0 0 0 0 0 0 0 0 0 127 0" result="hardAlpha"/><feOffset dy="-2"/><feGaussianBlur stdDeviation="2"/><feComposite in2="hardAlpha" operator="arithmetic" k2="-1" k3="1"/><feColorMatrix values="0 0 0 0 0 0 0 0 0 0 0 0 0 0 0 0 0 0 0.12 0"/><feBlend in2="effect1_innerShadow_219_3645" result="effect2_innerShadow_219_3645"/></filter><filter id="i" x="-2" y="-2" width="44" height="44" filterUnits="userSpaceOnUse" color-interpolation-filters="sRGB"><feFlood flood-opacity="0" result="BackgroundImageFix"/><feBlend in="SourceGraphic" in2="BackgroundImageFix" result="shape"/><feGaussianBlur stdDeviation="1" result="effect1_foregroundBlur_219_3645"/></filter><filter id="k" x="-6" y="-6" width="52" height="52" filterUnits="userSpaceOnUse" color-interpolation-filters="sRGB"><feFlood flood-opacity="0" result="BackgroundImageFix"/><feBlend in="SourceGraphic" in2="BackgroundImageFix" result="shape"/><feGaussianBlur stdDeviation="3" result="effect1_foregroundBlur_219_3645"/></filter><clipPath id="b"><path fill="#fff" d="M0 0h40v40H0z"/></clipPath><clipPath id="d"><path fill="#fff" transform="translate(5.484 5.484)" d="M0 0h29.032v29.032H0z"/></clipPath><clipPath id="e"><path fill="#fff" transform="translate(5.484 5.484)" d="M0 0h29.032v29.032H0z"/></clipPath><radialGradient id="c" cx="0" cy="0" r="1" gradientUnits="userSpaceOnUse" gradientTransform="matrix(0 20 -20 0 20 20)"><stop stop-color="#24292E"/><stop offset="1"/></radialGradient></defs></svg>