<svg width="40" height="40" fill="none" xmlns="http://www.w3.org/2000/svg" viewBox="0 0 40 40"><g clip-path="url(#a)"><path d="M7.508 39.203a3.121 3.121 0 0 1-3.118-3.118V3.88A3.121 3.121 0 0 1 7.508.763h18.594c.83 0 1.61.322 2.203.915l6.39 6.39a3.09 3.09 0 0 1 .915 2.203v25.797a3.121 3.121 0 0 1-3.118 3.118H7.508v.017Z" fill="#271910"/><path d="M26.102 1.475c.644 0 1.237.254 1.695.711l6.39 6.39c.457.458.711 1.051.711 1.695v25.797a2.416 2.416 0 0 1-2.407 2.407H7.509a2.416 2.416 0 0 1-2.406-2.407V3.88a2.416 2.416 0 0 1 2.406-2.406h18.594Zm0-1.441H7.508A3.855 3.855 0 0 0 3.661 3.88v32.187a3.855 3.855 0 0 0 3.847 3.847h24.984a3.855 3.855 0 0 0 3.847-3.847v-25.78c0-1.017-.407-2-1.119-2.712L28.814 1.17A3.824 3.824 0 0 0 26.102.034Z" fill="#F57E21"/><path d="M26.339 11.61h-1.932c-.119 0-.153.051-.153.153h.017v9.711c0 .102.034.153.153.153h1.915c.119 0 .153-.05.153-.152v-9.73c0-.101-.051-.135-.153-.135ZM25.356 10.203c.746 0 1.271-.44 1.271-1.254 0-.746-.508-1.254-1.254-1.254-.695 0-1.254.474-1.254 1.254 0 .83.525 1.271 1.237 1.254ZM12.627 21.627h1.814c.118 0 .152-.017.186-.118l.966-3.712h3.95l1.016 3.712c.017.084.085.118.187.118h2.05c.102 0 .12-.05.102-.152L18.983 8.187c-.017-.102-.05-.12-.152-.12h-2.594c-.067 0-.101.035-.101.12-.017.61-.068.813-.119 1.016l-3.492 12.238c-.05.152-.033.186.102.186Zm4.882-11.61h.017c.305 1.44 1.118 4.424 1.474 5.797h-2.915c.525-1.916 1.17-4.356 1.424-5.797Z" fill="#F57F22"/><path d="M22.898 28.153h-.864c-.05 0-.068.034-.068.084v5.933c0 .067.017.101.068.101h.864c.051 0 .068-.034.068-.084v-5.95c0-.067-.034-.084-.068-.084ZM16.712 34.271h.813c.051 0 .068-.017.085-.05l.44-1.662h1.78l.458 1.678c.017.034.034.051.085.051h.915c.051 0 .051-.034.051-.068l-1.763-5.983c-.017-.05-.034-.05-.067-.05h-1.17c-.034 0-.05.016-.05.05-.018.272-.035.356-.052.458l-1.576 5.525c-.017.034 0 .051.05.051Zm2.203-5.237c.153.644.526 2 .678 2.61h-1.322c.238-.864.526-1.949.644-2.61Z" fill="#fff"/></g><defs><clipPath id="a"><path fill="#fff" transform="translate(3.56)" d="M0 0h32.881v40H0z"/></clipPath></defs></svg>