<svg width="40" height="40" fill="none" xmlns="http://www.w3.org/2000/svg" viewBox="0 0 40 40"><path d="M7.5 29.063.4 23.6 4 17l6 1.75-2.5 10.313Z" fill="url(#a)"/><path d="m40 10.667-.667 23.2L23.867 40l-8.4-5.467L24.062 20 40 10.667Z" fill="#087CFA"/><path d="m40 10.667-8.133 8-10.305-11.48 5.905-6.52 12.533 10Z" fill="url(#b)"/><path d="M15.467 34.533 3.2 39.067 5.733 30l3.334-11.067L0 15.867 5.733 0l13.2 1.6L31 17.333l.733 1.334-16.266 15.866Z" fill="url(#c)"/><path d="M31.875 8.125H8.125v23.75h23.75V8.125Z" fill="url(#d)"/><path d="M20.09 27.5h-8.84v1.451h8.84V27.5ZM15.558 12.732v-1.638h-4.451v1.638h1.242v5.64h-1.242v1.625h4.451v-1.625h-1.254v-5.64h1.254ZM19.838 20.129c-.7 0-1.281-.132-1.743-.396a4.165 4.165 0 0 1-1.163-.938l1.229-1.374c.25.277.515.502.766.66.264.16.541.238.858.238.37 0 .66-.119.872-.356.212-.238.317-.608.317-1.123v-5.733h2.008v5.825c0 .529-.066.991-.211 1.387a2.696 2.696 0 0 1-.621.991 2.687 2.687 0 0 1-1.004.62 4.115 4.115 0 0 1-1.308.199Z" fill="#fff"/><defs><linearGradient id="a" x1="2.957" y1="22.794" x2="22.865" y2="21.785" gradientUnits="userSpaceOnUse"><stop offset=".091" stop-color="#FC801D"/><stop offset=".231" stop-color="#B07F61"/><stop offset=".409" stop-color="#577DB3"/><stop offset=".533" stop-color="#1E7CE6"/><stop offset=".593" stop-color="#087CFA"/></linearGradient><linearGradient id="b" x1="35.423" y1="21.095" x2="28.662" y2=".89" gradientUnits="userSpaceOnUse"><stop stop-color="#FE2857"/><stop offset=".078" stop-color="#CB3979"/><stop offset=".16" stop-color="#9E4997"/><stop offset=".247" stop-color="#7557B2"/><stop offset=".339" stop-color="#5362C8"/><stop offset=".436" stop-color="#386CDA"/><stop offset=".541" stop-color="#2373E8"/><stop offset=".658" stop-color="#1478F2"/><stop offset=".794" stop-color="#0B7BF8"/><stop offset="1" stop-color="#087CFA"/></linearGradient><linearGradient id="c" x1="5.752" y1="9.426" x2="30.787" y2="50.834" gradientUnits="userSpaceOnUse"><stop stop-color="#FE2857"/><stop offset=".08" stop-color="#FE295F"/><stop offset=".206" stop-color="#FF2D76"/><stop offset=".303" stop-color="#FF318C"/><stop offset=".385" stop-color="#EA3896"/><stop offset=".553" stop-color="#B248AE"/><stop offset=".792" stop-color="#5A63D6"/><stop offset="1" stop-color="#087CFA"/></linearGradient><linearGradient id="d" x1="19.968" y1="2.353" x2="19.968" y2="23.652" gradientUnits="userSpaceOnUse"><stop offset=".084" stop-color="#878585"/><stop offset=".538"/></linearGradient></defs></svg>