<svg width="40" height="40" fill="none" xmlns="http://www.w3.org/2000/svg" viewBox="0 0 40 40"><g filter="url(#a)"><g clip-path="url(#b)"><path d="M20 40c8.764 0 13.636 0 16.818-3.182C40 33.636 40 28.764 40 20c0-8.764 0-13.636-3.182-16.818C33.636 0 28.764 0 20 0 11.236 0 6.364 0 3.182 3.182 0 6.364 0 11.236 0 20c0 8.764 0 13.636 3.182 16.818C6.364 40 11.236 40 20 40Z" fill="url(#c)"/><g clip-path="url(#d)" filter="url(#e)" fill-rule="evenodd" clip-rule="evenodd"><path d="M16.602 7.258a2.547 2.547 0 1 0 0 5.096h2.55V9.807a2.55 2.55 0 0 0-2.55-2.549Zm0 6.796H9.807a2.548 2.548 0 0 0-.001 5.097h6.796a2.548 2.548 0 1 0 0-5.097Z" fill="#36C5F0"/><path d="M32.742 16.602a2.548 2.548 0 0 0-5.098 0v2.549h2.55a2.549 2.549 0 0 0 2.548-2.55Zm-6.796 0V9.806a2.549 2.549 0 0 0-5.096 0v6.796a2.548 2.548 0 1 0 5.096 0Z" fill="#2EB67D"/><path d="M23.397 32.742a2.548 2.548 0 1 0 0-5.096H20.85v2.548a2.55 2.55 0 0 0 2.548 2.548Zm0-6.797h6.796a2.548 2.548 0 0 0 .001-5.096h-6.796a2.548 2.548 0 0 0 0 5.096Z" fill="#ECB22E"/><path d="M7.258 23.398a2.549 2.549 0 0 0 5.098 0V20.85h-2.55a2.548 2.548 0 0 0-2.548 2.547Zm6.796 0v6.795a2.548 2.548 0 0 0 5.096.001V23.4a2.549 2.549 0 0 0-5.096-.002Z" fill="#E01E5A"/></g><path d="M20 40c8.764 0 13.636 0 16.818-3.182C40 33.636 40 28.764 40 20c0-8.764 0-13.636-3.182-16.818C33.636 0 28.764 0 20 0 11.236 0 6.364 0 3.182 3.182 0 6.364 0 11.236 0 20c0 8.764 0 13.636 3.182 16.818C6.364 40 11.236 40 20 40Z" fill="url(#f)" style="mix-blend-mode:overlay"/><path d="M20 40c8.764 0 13.636 0 16.818-3.182C40 33.636 40 28.764 40 20c0-8.764 0-13.636-3.182-16.818C33.636 0 28.764 0 20 0 11.236 0 6.364 0 3.182 3.182 0 6.364 0 11.236 0 20c0 8.764 0 13.636 3.182 16.818C6.364 40 11.236 40 20 40Z" fill="url(#g)"/><g style="mix-blend-mode:soft-light" filter="url(#h)"><path d="M35.757 35.757c-1.282 1.282-2.945 1.99-5.473 2.361-2.578.378-5.86.382-10.284.382-4.425 0-7.706-.004-10.284-.382-2.528-.37-4.191-1.079-5.473-2.36-1.282-1.283-1.99-2.946-2.361-5.474C1.504 27.706 1.5 24.424 1.5 20c0-4.425.004-7.706.382-10.284.37-2.528 1.079-4.191 2.36-5.473 1.283-1.282 2.946-1.99 5.474-2.361C12.294 1.504 15.576 1.5 20 1.5c4.425 0 7.706.004 10.284.382 2.528.37 4.191 1.079 5.473 2.36 1.282 1.283 1.99 2.946 2.361 5.474.378 2.578.382 5.86.382 10.284 0 4.425-.004 7.706-.382 10.284-.37 2.528-1.079 4.191-2.36 5.473Z" stroke="url(#i)" stroke-width="3"/></g><g style="mix-blend-mode:soft-light" filter="url(#j)"><path d="M30.212 37.623c2.466-.361 4.012-1.04 5.192-2.22 1.179-1.178 1.858-2.725 2.22-5.191C37.994 27.678 38 24.439 38 20s-.005-7.678-.377-10.212c-.361-2.466-1.04-4.013-2.22-5.192-1.178-1.179-2.725-1.858-5.191-2.22C27.678 2.006 24.439 2 20 2s-7.678.005-10.212.377c-2.466.361-4.013 1.04-5.192 2.22m25.616 33.026L4.596 4.596m25.616 33.027C27.678 37.995 24.439 38 20 38s-7.678-.005-10.212-.377c-2.466-.361-4.013-1.04-5.192-2.22-1.179-1.178-1.858-2.725-2.22-5.191C2.006 27.678 2 24.439 2 20s.005-7.678.377-10.212c.361-2.466 1.04-4.013 2.22-5.192m25.615 33.027L4.596 4.596" stroke="url(#k)" stroke-width="4"/></g></g></g><defs><linearGradient id="f" x1="-.469" y1="0" x2="10.481" y2="46.893" gradientUnits="userSpaceOnUse"><stop stop-opacity="0"/><stop offset=".606" stop-opacity=".078"/><stop offset="1" stop-opacity=".26"/></linearGradient><linearGradient id="g" x1="-.469" y1="0" x2="10.481" y2="46.893" gradientUnits="userSpaceOnUse"><stop stop-color="#fff" stop-opacity=".26"/><stop offset=".641" stop-color="#fff" stop-opacity=".078"/><stop offset="1" stop-color="#fff" stop-opacity="0"/></linearGradient><linearGradient id="i" x1="20" y1="40" x2="20" y2="33.75" gradientUnits="userSpaceOnUse"><stop/><stop offset="1" stop-opacity="0"/></linearGradient><linearGradient id="k" x1="20" y1="0" x2="20" y2="20" gradientUnits="userSpaceOnUse"><stop stop-color="#fff"/><stop offset="1" stop-color="#fff" stop-opacity="0"/></linearGradient><filter id="a" x="0" y="-2" width="40" height="44" filterUnits="userSpaceOnUse" color-interpolation-filters="sRGB"><feFlood flood-opacity="0" result="BackgroundImageFix"/><feBlend in="SourceGraphic" in2="BackgroundImageFix" result="shape"/><feColorMatrix in="SourceAlpha" values="0 0 0 0 0 0 0 0 0 0 0 0 0 0 0 0 0 0 127 0" result="hardAlpha"/><feOffset dy="2"/><feGaussianBlur stdDeviation="2"/><feComposite in2="hardAlpha" operator="arithmetic" k2="-1" k3="1"/><feColorMatrix values="0 0 0 0 1 0 0 0 0 1 0 0 0 0 1 0 0 0 0.25 0"/><feBlend in2="shape" result="effect1_innerShadow_219_3788"/><feColorMatrix in="SourceAlpha" values="0 0 0 0 0 0 0 0 0 0 0 0 0 0 0 0 0 0 127 0" result="hardAlpha"/><feOffset dy="-2"/><feGaussianBlur stdDeviation="2"/><feComposite in2="hardAlpha" operator="arithmetic" k2="-1" k3="1"/><feColorMatrix values="0 0 0 0 0 0 0 0 0 0 0 0 0 0 0 0 0 0 0.12 0"/><feBlend in2="effect1_innerShadow_219_3788" result="effect2_innerShadow_219_3788"/></filter><filter id="e" x="7.258" y="5.258" width="25.484" height="29.484" filterUnits="userSpaceOnUse" color-interpolation-filters="sRGB"><feFlood flood-opacity="0" result="BackgroundImageFix"/><feBlend in="SourceGraphic" in2="BackgroundImageFix" result="shape"/><feColorMatrix in="SourceAlpha" values="0 0 0 0 0 0 0 0 0 0 0 0 0 0 0 0 0 0 127 0" result="hardAlpha"/><feOffset dy="2"/><feGaussianBlur stdDeviation="2"/><feComposite in2="hardAlpha" operator="arithmetic" k2="-1" k3="1"/><feColorMatrix values="0 0 0 0 1 0 0 0 0 1 0 0 0 0 1 0 0 0 0.25 0"/><feBlend in2="shape" result="effect1_innerShadow_219_3788"/><feColorMatrix in="SourceAlpha" values="0 0 0 0 0 0 0 0 0 0 0 0 0 0 0 0 0 0 127 0" result="hardAlpha"/><feOffset dy="-2"/><feGaussianBlur stdDeviation="2"/><feComposite in2="hardAlpha" operator="arithmetic" k2="-1" k3="1"/><feColorMatrix values="0 0 0 0 0 0 0 0 0 0 0 0 0 0 0 0 0 0 0.12 0"/><feBlend in2="effect1_innerShadow_219_3788" result="effect2_innerShadow_219_3788"/></filter><filter id="h" x="-2" y="-2" width="44" height="44" filterUnits="userSpaceOnUse" color-interpolation-filters="sRGB"><feFlood flood-opacity="0" result="BackgroundImageFix"/><feBlend in="SourceGraphic" in2="BackgroundImageFix" result="shape"/><feGaussianBlur stdDeviation="1" result="effect1_foregroundBlur_219_3788"/></filter><filter id="j" x="-6" y="-6" width="52" height="52" filterUnits="userSpaceOnUse" color-interpolation-filters="sRGB"><feFlood flood-opacity="0" result="BackgroundImageFix"/><feBlend in="SourceGraphic" in2="BackgroundImageFix" result="shape"/><feGaussianBlur stdDeviation="3" result="effect1_foregroundBlur_219_3788"/></filter><clipPath id="b"><path fill="#fff" d="M0 0h40v40H0z"/></clipPath><clipPath id="d"><path fill="#fff" transform="translate(7.258 7.258)" d="M0 0h25.484v25.484H0z"/></clipPath><radialGradient id="c" cx="0" cy="0" r="1" gradientUnits="userSpaceOnUse" gradientTransform="matrix(0 20 -20 0 20 20)"><stop stop-color="#262626"/><stop offset="1"/></radialGradient></defs></svg>