<svg width="40" height="40" fill="none" xmlns="http://www.w3.org/2000/svg" viewBox="0 0 40 40"><path d="M20 0C8.954 0 0 8.954 0 20s8.954 20 20 20 20-8.954 20-20S31.046 0 20 0Z" fill="#40B3E0"/><path d="m29.732 11.505-3.572 18.01s-.5 1.25-1.874.65l-8.243-6.32-2.998-1.449L8 20.698s-.774-.275-.85-.875c-.074-.6.875-.924.875-.924l20.059-7.869s1.649-.724 1.649.475Z" fill="#fff"/><path d="M15.409 29.313s-.24-.022-.54-.972c-.3-.949-1.824-5.945-1.824-5.945l12.115-7.694s.7-.424.675 0c0 0 .125.075-.25.425s-9.517 8.568-9.517 8.568" fill="#D2E5F1"/><path d="m19.203 26.268-3.26 2.973s-.255.193-.534.072l.624-5.522" fill="#B5CFE4"/></svg>